<?xml version="1.0" encoding="utf-8"?>
<!-- Generator: Adobe Illustrator 19.1.0, SVG Export Plug-In . SVG Version: 6.00 Build 0)  -->
<svg version="1.0" id="Layer_1" xmlns:sketch="http://www.bohemiancoding.com/sketch/ns"
	 xmlns="http://www.w3.org/2000/svg" xmlns:xlink="http://www.w3.org/1999/xlink" x="0px" y="0px"
	 viewBox="-1011.7 1044.9 117.4 138.4" style="enable-background:new -1011.7 1044.9 117.4 138.4;" xml:space="preserve">
<style type="text/css">
	.st0{opacity:0.4512;fill:#DEDEDE;enable-background:new    ;}
	.st1{fill:#FECB00;}
	.st2{fill:#FFFFFF;}
	.st3{fill:#636466;}
</style>
<title>ico-drive</title>
<desc>Created with Sketch.</desc>
<g id="Page-1" sketch:type="MSPage">
	<g id="Desktop" transform="translate(-848.000000, -95.000000)" sketch:type="MSArtboardGroup">
		<g id="Oval-7-_x2B_-Imported-Layers-Copy" transform="translate(848.000000, 96.000000)" sketch:type="MSLayerGroup">
			<ellipse id="Oval-7" sketch:type="MSShapeGroup" class="st0" cx="-953.5" cy="1179.8" rx="37.5" ry="2.5">
			</ellipse>
			<g id="Imported-Layers" sketch:type="MSShapeGroup">
				<path id="Fill-1" class="st1" d="M-894.3,1102.3c0,32.4-26.3,58.7-58.7,58.7s-58.7-26.3-58.7-58.7s26.3-58.4,58.7-58.4
					S-894.3,1069.9-894.3,1102.3"/>
				<path id="Fill-2" class="st2" d="M-973.7,1084.9h-21.6c-2.4,0-4.3-2-4.3-4.4s1.9-4.4,4.3-4.4h21.6c2.4,0,4.3,2,4.3,4.4
					S-971.3,1084.9-973.7,1084.9"/>
				<path id="Fill-3" class="st2" d="M-980,1079.6h-7.3c-2.4,0-4.3-2-4.3-4.4c0-2.4,1.9-4.4,4.3-4.4h7.3c2.4,0,4.3,2,4.3,4.4
					C-975.7,1077.5-977.6,1079.6-980,1079.6"/>
				<path id="Fill-4" class="st2" d="M-938.5,1060.8h-15.7c-2.4,0-4.3-2-4.3-4.4s1.9-4.4,4.3-4.4h15.7c2.4,0,4.3,2,4.3,4.4
					S-936.2,1060.8-938.5,1060.8"/>
				<path id="Fill-5" class="st2" d="M-933.3,1064.8H-949c-2.4,0-4.3-2-4.3-4.4s1.9-4.4,4.3-4.4h15.7c2.4,0,4.3,2,4.3,4.4
					S-930.9,1064.8-933.3,1064.8"/>
				<path id="Fill-6" class="st2" d="M-945.1,1067.5h-15.7c-2.4,0-4.3-2-4.3-4.4c0-2.4,1.9-4.4,4.3-4.4h15.7c2.4,0,4.3,2,4.3,4.4
					C-940.8,1065.5-942.7,1067.5-945.1,1067.5"/>
				<path id="Fill-7" class="st3" d="M-1001.4,1135.5c3.2,4.7,7.1,8.9,11.5,12.5c5.4-27.4,29.5-48.1,58.4-48.1
					c13.6,0,26.2,4.6,36.2,12.3c0.5-3.2,0.8-6.5,0.8-9.9c0-2.4-0.1-4.8-0.4-7.1c-10.8-6.2-23.3-9.7-36.6-9.7
					C-963.8,1085.5-991.4,1106.4-1001.4,1135.5"/>
				<path id="Fill-8" class="st2" d="M-907.7,1139.7l-11-18.3l4.7-33.8c0.4-3-1.7-5.9-4.8-6.3c-1.1-0.1-2.1,0-3,0.4
					c-0.8-1.6-2.3-2.8-4.2-3c-1.1-0.1-2.1,0-3,0.4c-0.8-1.6-2.3-2.8-4.2-3c-1.1-0.1-2.1,0-3,0.4c-0.4-0.9-1.1-1.6-1.9-2.1
					c-1.8-1.2-4.1-1.3-5.9-0.2l-12.1,7c-2.7,1.5-3.6,5-2,7.6c0.3,0.5,0.6,0.9,1,1.3c3.8-1.5,9.2-2.7,9.2-2.7l-2.3,16.6
					c-0.7,0.6-1.4,1.2-2.1,2l-3.9-7.3c-1.5-2.7-4.8-3.7-7.5-2.3c-2.7,1.5-3.7,4.8-2.3,7.5l10.3,19.2c2,6,7.2,10.5,13.6,11.5
					l12.9,21.5C-920.8,1152.3-913.5,1146.7-907.7,1139.7"/>
			</g>
		</g>
	</g>
</g>
</svg>
